<?xml version="1.0" encoding="UTF-8"?>
<svg xmlns="http://www.w3.org/2000/svg" xmlns:xlink="http://www.w3.org/1999/xlink" width="15px" height="15px" viewBox="0 0 15 15" version="1.1">
<g id="surface1">
<path style=" stroke:none;fill-rule:nonzero;fill:rgb(94.509804%,94.509804%,94.509804%);fill-opacity:1;" d="M 14.992188 7.140625 C 14.992188 7.121094 14.988281 7.101562 14.988281 7.085938 C 14.988281 7.074219 14.988281 7.0625 14.988281 7.050781 C 14.984375 6.976562 14.976562 6.902344 14.96875 6.828125 C 14.960938 6.742188 14.953125 6.65625 14.945312 6.570312 C 14.941406 6.539062 14.9375 6.507812 14.929688 6.480469 C 14.925781 6.449219 14.921875 6.417969 14.917969 6.386719 C 14.910156 6.324219 14.898438 6.261719 14.886719 6.199219 C 14.882812 6.171875 14.878906 6.144531 14.875 6.117188 C 14.867188 6.085938 14.863281 6.054688 14.855469 6.027344 C 14.851562 5.996094 14.84375 5.964844 14.835938 5.933594 C 14.824219 5.878906 14.8125 5.824219 14.800781 5.769531 C 14.792969 5.738281 14.785156 5.707031 14.777344 5.671875 C 14.722656 5.460938 14.664062 5.253906 14.59375 5.046875 C 14.582031 5.019531 14.570312 4.988281 14.5625 4.960938 C 14.53125 4.878906 14.5 4.792969 14.46875 4.710938 C 14.457031 4.683594 14.445312 4.65625 14.433594 4.628906 C 14.421875 4.605469 14.414062 4.578125 14.402344 4.554688 C 14.390625 4.527344 14.378906 4.5 14.367188 4.476562 C 14.355469 4.449219 14.347656 4.425781 14.335938 4.402344 C 14.328125 4.382812 14.316406 4.367188 14.308594 4.347656 C 14.304688 4.339844 14.304688 4.332031 14.300781 4.324219 C 14.289062 4.304688 14.28125 4.285156 14.269531 4.265625 C 14.25 4.21875 14.226562 4.175781 14.203125 4.128906 C 14.191406 4.101562 14.175781 4.078125 14.164062 4.050781 C 14.132812 3.988281 14.097656 3.929688 14.066406 3.867188 C 14.058594 3.851562 14.050781 3.835938 14.039062 3.820312 C 14.03125 3.808594 14.027344 3.796875 14.019531 3.785156 C 14.007812 3.765625 13.996094 3.746094 13.988281 3.730469 C 13.972656 3.703125 13.957031 3.675781 13.9375 3.648438 C 13.882812 3.554688 13.824219 3.460938 13.761719 3.371094 C 13.730469 3.320312 13.699219 3.277344 13.667969 3.230469 C 13.644531 3.199219 13.625 3.167969 13.601562 3.136719 C 13.585938 3.113281 13.566406 3.085938 13.546875 3.0625 C 13.539062 3.050781 13.53125 3.039062 13.523438 3.027344 C 13.492188 2.988281 13.460938 2.945312 13.429688 2.90625 C 13.394531 2.859375 13.355469 2.808594 13.316406 2.761719 C 13.304688 2.75 13.296875 2.738281 13.285156 2.726562 C 13.195312 2.617188 13.101562 2.507812 13.003906 2.402344 C 12.988281 2.390625 12.976562 2.375 12.960938 2.359375 L 12.957031 2.355469 C 12.9375 2.335938 12.917969 2.316406 12.898438 2.292969 C 12.867188 2.261719 12.835938 2.230469 12.804688 2.195312 C 12.78125 2.171875 12.757812 2.152344 12.734375 2.128906 C 12.71875 2.113281 12.707031 2.101562 12.691406 2.085938 C 12.671875 2.066406 12.648438 2.046875 12.628906 2.027344 C 12.601562 2.003906 12.574219 1.976562 12.550781 1.953125 C 12.519531 1.929688 12.492188 1.902344 12.464844 1.875 C 12.433594 1.847656 12.402344 1.820312 12.371094 1.796875 C 12.347656 1.777344 12.328125 1.761719 12.308594 1.742188 C 12.28125 1.722656 12.257812 1.703125 12.234375 1.679688 C 12.210938 1.660156 12.183594 1.640625 12.160156 1.621094 C 12.140625 1.605469 12.117188 1.589844 12.097656 1.574219 C 12.078125 1.558594 12.054688 1.539062 12.03125 1.523438 C 12.019531 1.511719 12.003906 1.503906 11.992188 1.492188 C 11.972656 1.480469 11.957031 1.464844 11.941406 1.453125 C 11.929688 1.445312 11.921875 1.441406 11.914062 1.433594 C 11.898438 1.421875 11.878906 1.410156 11.863281 1.398438 C 11.835938 1.378906 11.808594 1.359375 11.777344 1.339844 C 11.726562 1.300781 11.675781 1.265625 11.621094 1.230469 C 11.59375 1.210938 11.5625 1.191406 11.53125 1.171875 C 11.503906 1.15625 11.476562 1.136719 11.449219 1.121094 C 11.441406 1.117188 11.433594 1.113281 11.425781 1.105469 C 11.40625 1.09375 11.382812 1.078125 11.359375 1.066406 C 11.351562 1.058594 11.339844 1.054688 11.332031 1.050781 C 11.304688 1.03125 11.277344 1.015625 11.25 1 C 11.21875 0.980469 11.1875 0.964844 11.15625 0.945312 C 11.140625 0.9375 11.125 0.929688 11.109375 0.921875 C 11.027344 0.878906 10.945312 0.832031 10.863281 0.792969 C 10.84375 0.78125 10.824219 0.773438 10.800781 0.761719 C 10.78125 0.753906 10.761719 0.742188 10.742188 0.734375 C 10.722656 0.722656 10.703125 0.714844 10.683594 0.703125 C 10.660156 0.695312 10.640625 0.683594 10.621094 0.675781 C 10.511719 0.625 10.398438 0.578125 10.289062 0.53125 C 10.257812 0.519531 10.230469 0.511719 10.203125 0.5 C 10.175781 0.488281 10.144531 0.476562 10.117188 0.46875 C 10.09375 0.460938 10.074219 0.449219 10.050781 0.441406 C 10.011719 0.429688 9.972656 0.414062 9.933594 0.402344 C 9.910156 0.394531 9.882812 0.386719 9.859375 0.375 C 9.695312 0.320312 9.527344 0.273438 9.359375 0.230469 C 9.335938 0.226562 9.316406 0.21875 9.292969 0.214844 C 9.265625 0.207031 9.242188 0.203125 9.214844 0.195312 C 9.195312 0.191406 9.171875 0.1875 9.152344 0.179688 C 9.121094 0.175781 9.09375 0.167969 9.066406 0.164062 C 9.042969 0.15625 9.023438 0.152344 9.003906 0.148438 C 8.988281 0.148438 8.972656 0.144531 8.957031 0.140625 C 8.800781 0.109375 8.640625 0.0820312 8.480469 0.0625 C 8.457031 0.0585938 8.433594 0.0585938 8.414062 0.0546875 C 8.34375 0.046875 8.273438 0.0390625 8.203125 0.03125 C 8.179688 0.03125 8.152344 0.0273438 8.128906 0.0273438 C 8.066406 0.0195312 8.003906 0.015625 7.941406 0.0117188 C 7.925781 0.0117188 7.910156 0.0117188 7.894531 0.0117188 C 7.878906 0.0078125 7.863281 0.0078125 7.847656 0.0078125 C 7.84375 0.0078125 7.839844 0.0078125 7.832031 0.0078125 C 7.796875 0.00390625 7.765625 0.00390625 7.730469 0.00390625 C 7.722656 0.00390625 7.71875 0.00390625 7.714844 0.00390625 C 7.679688 0.00390625 7.644531 0 7.609375 0 C 7.574219 0 7.535156 0 7.5 0 C 7.351562 0 7.207031 0.00390625 7.0625 0.0117188 C 6.019531 0.0742188 5.015625 0.34375 4.105469 0.808594 C 4.078125 0.820312 4.054688 0.835938 4.027344 0.847656 C 3.949219 0.886719 3.875 0.929688 3.800781 0.972656 C 3.644531 1.0625 3.492188 1.152344 3.34375 1.253906 C 3.273438 1.300781 3.203125 1.351562 3.132812 1.402344 C 2.800781 1.636719 2.488281 1.902344 2.195312 2.195312 C 1.890625 2.5 1.617188 2.828125 1.371094 3.171875 C 1.320312 3.246094 1.265625 3.324219 1.214844 3.402344 C 1.054688 3.648438 0.910156 3.902344 0.777344 4.164062 C 0.328125 5.066406 0.0664062 6.058594 0.0117188 7.089844 C 0.00390625 7.226562 0 7.363281 0 7.5 C 0 7.65625 0.00390625 7.8125 0.015625 7.96875 C 0.0195312 8.046875 0.0234375 8.128906 0.03125 8.207031 C 0.109375 9.050781 0.332031 9.867188 0.679688 10.625 C 0.71875 10.714844 0.761719 10.800781 0.804688 10.886719 C 0.9375 11.148438 1.085938 11.402344 1.246094 11.644531 C 1.523438 12.058594 1.839844 12.445312 2.195312 12.804688 C 2.566406 13.171875 2.96875 13.5 3.394531 13.777344 C 3.640625 13.941406 3.894531 14.085938 4.15625 14.21875 C 4.230469 14.253906 4.304688 14.289062 4.378906 14.324219 C 5.140625 14.671875 5.960938 14.890625 6.808594 14.96875 C 6.898438 14.976562 6.988281 14.984375 7.078125 14.988281 C 7.21875 14.996094 7.359375 15 7.5 15 C 7.546875 15 7.59375 15 7.640625 15 C 7.664062 15 7.6875 14.996094 7.710938 14.996094 C 7.714844 14.996094 7.714844 14.996094 7.71875 14.996094 C 7.726562 14.996094 7.738281 14.996094 7.746094 14.996094 C 7.746094 14.996094 7.75 14.996094 7.75 14.996094 C 7.78125 14.996094 7.8125 14.992188 7.84375 14.992188 C 7.878906 14.992188 7.910156 14.988281 7.945312 14.988281 C 7.949219 14.988281 7.953125 14.988281 7.957031 14.984375 C 7.992188 14.984375 8.027344 14.980469 8.058594 14.980469 C 8.121094 14.976562 8.183594 14.96875 8.246094 14.964844 C 8.277344 14.960938 8.308594 14.957031 8.34375 14.953125 C 8.375 14.949219 8.40625 14.945312 8.4375 14.941406 C 8.464844 14.9375 8.492188 14.933594 8.519531 14.929688 C 8.539062 14.929688 8.558594 14.925781 8.578125 14.921875 C 8.589844 14.921875 8.605469 14.917969 8.617188 14.917969 C 8.644531 14.914062 8.675781 14.910156 8.703125 14.90625 C 8.726562 14.902344 8.746094 14.898438 8.765625 14.894531 C 8.785156 14.890625 8.800781 14.886719 8.816406 14.886719 C 8.820312 14.886719 8.820312 14.882812 8.824219 14.882812 C 8.839844 14.882812 8.859375 14.878906 8.875 14.875 C 8.878906 14.875 8.886719 14.871094 8.894531 14.871094 C 8.910156 14.867188 8.925781 14.867188 8.941406 14.863281 C 8.945312 14.863281 8.949219 14.859375 8.953125 14.859375 C 8.964844 14.859375 8.976562 14.855469 8.992188 14.851562 C 9.015625 14.847656 9.039062 14.84375 9.066406 14.835938 C 9.140625 14.820312 9.21875 14.804688 9.296875 14.785156 C 9.324219 14.777344 9.347656 14.773438 9.375 14.765625 C 9.390625 14.761719 9.40625 14.757812 9.421875 14.753906 C 9.441406 14.746094 9.460938 14.742188 9.480469 14.738281 C 9.484375 14.738281 9.484375 14.738281 9.484375 14.738281 C 9.507812 14.730469 9.535156 14.722656 9.558594 14.714844 C 9.578125 14.710938 9.601562 14.703125 9.625 14.695312 C 9.664062 14.683594 9.707031 14.671875 9.746094 14.660156 C 9.777344 14.652344 9.804688 14.640625 9.828125 14.632812 C 9.859375 14.621094 9.890625 14.613281 9.917969 14.601562 C 9.933594 14.597656 9.949219 14.59375 9.964844 14.585938 C 9.980469 14.582031 9.996094 14.578125 10.007812 14.570312 C 10.039062 14.5625 10.070312 14.550781 10.097656 14.539062 C 10.128906 14.527344 10.15625 14.519531 10.1875 14.507812 C 10.214844 14.496094 10.246094 14.484375 10.273438 14.472656 C 10.304688 14.460938 10.332031 14.449219 10.363281 14.4375 C 10.390625 14.425781 10.421875 14.410156 10.449219 14.398438 C 10.453125 14.398438 10.453125 14.398438 10.457031 14.398438 C 10.492188 14.382812 10.527344 14.367188 10.5625 14.351562 C 10.5625 14.351562 10.5625 14.351562 10.566406 14.351562 C 10.601562 14.332031 10.632812 14.316406 10.667969 14.300781 C 10.738281 14.269531 10.808594 14.234375 10.878906 14.199219 C 10.910156 14.183594 10.945312 14.167969 10.976562 14.148438 C 11 14.136719 11.027344 14.121094 11.050781 14.109375 C 11.125 14.070312 11.199219 14.027344 11.269531 13.988281 C 11.300781 13.96875 11.328125 13.953125 11.359375 13.933594 C 11.425781 13.894531 11.492188 13.851562 11.558594 13.808594 C 11.585938 13.792969 11.613281 13.773438 11.636719 13.757812 C 11.707031 13.710938 11.777344 13.664062 11.84375 13.617188 C 11.886719 13.585938 11.929688 13.554688 11.96875 13.523438 C 12.011719 13.492188 12.054688 13.460938 12.09375 13.429688 L 12.144531 13.390625 C 12.167969 13.371094 12.191406 13.351562 12.21875 13.332031 C 12.238281 13.316406 12.257812 13.296875 12.277344 13.28125 C 12.300781 13.261719 12.324219 13.242188 12.347656 13.222656 C 12.503906 13.089844 12.65625 12.949219 12.804688 12.804688 C 12.835938 12.769531 12.871094 12.734375 12.90625 12.699219 C 12.925781 12.679688 12.945312 12.65625 12.964844 12.636719 C 13.003906 12.597656 13.039062 12.554688 13.078125 12.511719 C 13.113281 12.472656 13.148438 12.433594 13.183594 12.394531 C 13.1875 12.390625 13.191406 12.386719 13.195312 12.382812 C 13.214844 12.359375 13.234375 12.332031 13.253906 12.308594 C 13.285156 12.273438 13.316406 12.234375 13.347656 12.199219 C 13.359375 12.183594 13.371094 12.167969 13.386719 12.148438 C 13.402344 12.128906 13.421875 12.105469 13.4375 12.082031 C 13.457031 12.058594 13.472656 12.039062 13.492188 12.015625 C 13.519531 11.976562 13.546875 11.9375 13.578125 11.898438 C 13.589844 11.878906 13.605469 11.859375 13.617188 11.839844 C 13.621094 11.839844 13.621094 11.835938 13.621094 11.835938 C 13.652344 11.792969 13.683594 11.75 13.714844 11.703125 C 13.734375 11.675781 13.753906 11.648438 13.769531 11.617188 C 13.773438 11.617188 13.773438 11.617188 13.773438 11.613281 C 13.773438 11.613281 13.777344 11.613281 13.777344 11.609375 C 13.789062 11.59375 13.800781 11.574219 13.8125 11.558594 C 13.816406 11.550781 13.820312 11.542969 13.824219 11.539062 C 13.847656 11.5 13.871094 11.464844 13.894531 11.425781 C 13.910156 11.394531 13.929688 11.363281 13.949219 11.332031 C 13.957031 11.320312 13.964844 11.308594 13.972656 11.296875 C 13.984375 11.277344 13.992188 11.257812 14.003906 11.238281 C 14.058594 11.144531 14.113281 11.046875 14.164062 10.949219 C 14.179688 10.917969 14.195312 10.886719 14.210938 10.851562 C 14.238281 10.804688 14.261719 10.753906 14.285156 10.703125 C 14.304688 10.660156 14.324219 10.621094 14.34375 10.578125 C 14.355469 10.554688 14.363281 10.535156 14.375 10.511719 C 14.386719 10.484375 14.398438 10.457031 14.410156 10.429688 C 14.460938 10.308594 14.507812 10.1875 14.550781 10.0625 C 14.558594 10.042969 14.566406 10.023438 14.574219 10 C 14.605469 9.917969 14.628906 9.839844 14.65625 9.757812 C 14.664062 9.730469 14.671875 9.703125 14.679688 9.675781 C 14.6875 9.648438 14.695312 9.625 14.703125 9.597656 C 14.714844 9.5625 14.726562 9.527344 14.734375 9.492188 C 14.734375 9.484375 14.738281 9.480469 14.738281 9.476562 C 14.746094 9.445312 14.753906 9.417969 14.761719 9.390625 C 14.761719 9.382812 14.765625 9.375 14.765625 9.367188 C 14.773438 9.34375 14.777344 9.320312 14.785156 9.296875 C 14.789062 9.28125 14.792969 9.265625 14.796875 9.25 C 14.828125 9.109375 14.859375 8.964844 14.882812 8.824219 C 14.886719 8.800781 14.890625 8.78125 14.894531 8.757812 C 14.898438 8.738281 14.902344 8.722656 14.90625 8.703125 C 14.910156 8.671875 14.914062 8.640625 14.917969 8.613281 C 14.921875 8.582031 14.925781 8.550781 14.929688 8.519531 C 14.9375 8.476562 14.941406 8.433594 14.949219 8.386719 C 14.949219 8.363281 14.953125 8.339844 14.957031 8.3125 C 14.960938 8.28125 14.964844 8.25 14.964844 8.21875 C 14.96875 8.203125 14.96875 8.1875 14.96875 8.171875 C 14.972656 8.15625 14.972656 8.136719 14.972656 8.121094 C 14.976562 8.09375 14.980469 8.066406 14.980469 8.035156 C 14.980469 8.023438 14.984375 8.011719 14.984375 8 C 14.984375 7.976562 14.988281 7.953125 14.988281 7.929688 C 14.988281 7.894531 14.992188 7.859375 14.992188 7.824219 C 14.996094 7.75 15 7.679688 15 7.609375 C 15 7.570312 15 7.535156 15 7.5 L 15 7.492188 C 15 7.375 14.996094 7.257812 14.992188 7.140625 Z M 14.992188 7.140625 "/>
<path style=" stroke:none;fill-rule:nonzero;fill:rgb(88.235294%,88.235294%,89.411765%);fill-opacity:1;" d="M 15 7.5 C 15 7.535156 15 7.570312 15 7.609375 C 15 7.679688 14.996094 7.75 14.992188 7.824219 C 14.992188 7.859375 14.988281 7.894531 14.988281 7.929688 C 14.988281 7.953125 14.984375 7.976562 14.984375 8 C 14.984375 8.011719 14.980469 8.023438 14.980469 8.035156 C 14.980469 8.066406 14.976562 8.09375 14.972656 8.121094 C 14.972656 8.136719 14.972656 8.15625 14.96875 8.171875 C 14.96875 8.1875 14.96875 8.203125 14.964844 8.21875 C 14.964844 8.25 14.960938 8.28125 14.957031 8.3125 C 14.953125 8.339844 14.949219 8.363281 14.949219 8.386719 C 14.941406 8.433594 14.9375 8.476562 14.929688 8.519531 C 14.925781 8.550781 14.921875 8.582031 14.917969 8.613281 C 14.914062 8.640625 14.910156 8.671875 14.90625 8.703125 C 14.902344 8.722656 14.898438 8.738281 14.894531 8.757812 C 14.890625 8.78125 14.886719 8.800781 14.882812 8.824219 C 14.859375 8.964844 14.828125 9.109375 14.796875 9.25 C 14.792969 9.265625 14.789062 9.28125 14.785156 9.296875 C 14.777344 9.320312 14.773438 9.34375 14.765625 9.367188 C 14.765625 9.375 14.761719 9.382812 14.761719 9.390625 C 14.753906 9.417969 14.746094 9.445312 14.738281 9.476562 C 14.738281 9.480469 14.734375 9.484375 14.734375 9.492188 C 14.726562 9.527344 14.714844 9.5625 14.703125 9.597656 C 14.695312 9.625 14.6875 9.648438 14.679688 9.675781 C 14.671875 9.703125 14.664062 9.730469 14.65625 9.757812 C 14.628906 9.839844 14.605469 9.917969 14.574219 10 C 14.566406 10.023438 14.558594 10.042969 14.550781 10.0625 C 14.507812 10.1875 14.460938 10.308594 14.410156 10.429688 C 14.398438 10.457031 14.386719 10.484375 14.375 10.511719 C 14.363281 10.535156 14.355469 10.554688 14.34375 10.578125 C 14.324219 10.621094 14.304688 10.660156 14.285156 10.703125 C 14.261719 10.753906 14.238281 10.804688 14.210938 10.851562 C 14.195312 10.886719 14.179688 10.917969 14.164062 10.949219 C 14.113281 11.046875 14.058594 11.144531 14.003906 11.238281 C 13.988281 11.269531 13.96875 11.304688 13.949219 11.332031 C 13.929688 11.363281 13.910156 11.394531 13.894531 11.425781 C 13.871094 11.464844 13.847656 11.5 13.824219 11.539062 C 13.820312 11.542969 13.816406 11.550781 13.8125 11.558594 C 13.800781 11.574219 13.789062 11.59375 13.777344 11.609375 C 13.777344 11.613281 13.773438 11.613281 13.773438 11.613281 C 13.773438 11.617188 13.773438 11.617188 13.769531 11.617188 C 13.753906 11.648438 13.734375 11.675781 13.714844 11.703125 C 13.683594 11.75 13.652344 11.792969 13.621094 11.835938 C 13.621094 11.835938 13.621094 11.839844 13.617188 11.839844 C 13.605469 11.859375 13.589844 11.878906 13.578125 11.898438 C 13.546875 11.9375 13.519531 11.976562 13.492188 12.015625 C 13.472656 12.039062 13.457031 12.058594 13.4375 12.082031 C 13.421875 12.105469 13.402344 12.128906 13.386719 12.148438 C 13.371094 12.167969 13.359375 12.183594 13.347656 12.199219 C 13.316406 12.234375 13.285156 12.273438 13.253906 12.308594 C 13.234375 12.332031 13.214844 12.359375 13.195312 12.382812 C 13.191406 12.386719 13.1875 12.390625 13.183594 12.394531 C 13.148438 12.433594 13.113281 12.472656 13.078125 12.511719 C 13.039062 12.554688 13.003906 12.597656 12.964844 12.636719 C 12.945312 12.65625 12.925781 12.679688 12.90625 12.699219 C 12.871094 12.734375 12.835938 12.769531 12.804688 12.804688 C 12.65625 12.949219 12.503906 13.089844 12.347656 13.222656 C 12.324219 13.242188 12.300781 13.261719 12.277344 13.28125 C 12.257812 13.296875 12.238281 13.316406 12.21875 13.332031 C 12.191406 13.351562 12.167969 13.371094 12.144531 13.390625 L 12.09375 13.429688 C 12.054688 13.460938 12.011719 13.492188 11.96875 13.523438 C 11.929688 13.554688 11.886719 13.585938 11.84375 13.617188 C 11.777344 13.664062 11.707031 13.710938 11.636719 13.757812 C 11.613281 13.773438 11.585938 13.792969 11.558594 13.808594 C 11.492188 13.851562 11.425781 13.894531 11.359375 13.933594 C 11.328125 13.953125 11.300781 13.96875 11.269531 13.988281 C 11.199219 14.027344 11.125 14.070312 11.050781 14.109375 C 11.027344 14.121094 11 14.136719 10.976562 14.148438 C 10.945312 14.167969 10.910156 14.183594 10.878906 14.199219 C 10.808594 14.234375 10.738281 14.269531 10.667969 14.300781 C 10.632812 14.316406 10.601562 14.332031 10.566406 14.347656 C 10.5625 14.351562 10.5625 14.351562 10.5625 14.351562 C 10.527344 14.367188 10.492188 14.382812 10.457031 14.398438 C 10.453125 14.398438 10.453125 14.398438 10.449219 14.398438 C 10.421875 14.410156 10.390625 14.425781 10.363281 14.4375 C 10.332031 14.449219 10.304688 14.460938 10.273438 14.472656 C 10.246094 14.484375 10.214844 14.496094 10.1875 14.507812 C 10.15625 14.519531 10.128906 14.527344 10.097656 14.539062 C 10.070312 14.550781 10.039062 14.5625 10.007812 14.570312 C 9.996094 14.578125 9.980469 14.582031 9.964844 14.585938 C 9.949219 14.59375 9.933594 14.597656 9.917969 14.601562 C 9.890625 14.613281 9.859375 14.621094 9.828125 14.632812 C 9.804688 14.640625 9.777344 14.652344 9.746094 14.660156 C 9.707031 14.671875 9.664062 14.683594 9.625 14.695312 C 9.601562 14.703125 9.578125 14.710938 9.558594 14.714844 C 9.535156 14.722656 9.507812 14.730469 9.484375 14.734375 C 9.484375 14.734375 9.484375 14.738281 9.480469 14.738281 C 9.460938 14.742188 9.441406 14.746094 9.421875 14.753906 C 9.40625 14.757812 9.390625 14.761719 9.375 14.765625 C 9.347656 14.773438 9.324219 14.777344 9.296875 14.785156 C 9.21875 14.804688 9.140625 14.820312 9.066406 14.835938 C 9.039062 14.84375 9.015625 14.847656 8.992188 14.851562 C 8.976562 14.855469 8.964844 14.859375 8.953125 14.859375 C 8.949219 14.859375 8.945312 14.863281 8.941406 14.863281 C 8.925781 14.867188 8.910156 14.867188 8.894531 14.871094 C 8.886719 14.871094 8.878906 14.875 8.875 14.875 C 8.859375 14.878906 8.839844 14.882812 8.824219 14.882812 C 8.820312 14.882812 8.820312 14.886719 8.816406 14.886719 C 8.800781 14.886719 8.785156 14.890625 8.765625 14.894531 C 8.746094 14.898438 8.726562 14.902344 8.703125 14.90625 C 8.675781 14.910156 8.644531 14.914062 8.617188 14.917969 C 8.605469 14.917969 8.589844 14.921875 8.578125 14.921875 C 8.558594 14.925781 8.539062 14.929688 8.519531 14.929688 C 8.492188 14.933594 8.464844 14.9375 8.4375 14.941406 C 8.40625 14.945312 8.375 14.949219 8.34375 14.953125 C 8.308594 14.957031 8.277344 14.960938 8.246094 14.964844 C 8.183594 14.96875 8.121094 14.976562 8.058594 14.980469 C 8.027344 14.980469 7.992188 14.984375 7.957031 14.984375 C 7.953125 14.988281 7.949219 14.988281 7.945312 14.988281 C 7.910156 14.988281 7.878906 14.992188 7.84375 14.992188 C 7.8125 14.992188 7.78125 14.996094 7.75 14.996094 C 7.75 14.996094 7.746094 14.996094 7.746094 14.996094 C 7.738281 14.996094 7.726562 14.996094 7.71875 14.996094 C 7.714844 14.996094 7.714844 14.996094 7.710938 14.996094 C 7.6875 14.996094 7.664062 15 7.640625 15 C 7.59375 15 7.546875 15 7.5 15 L 7.5 0 C 7.535156 0 7.574219 0 7.609375 0 C 7.6875 0 7.769531 0.00390625 7.847656 0.0078125 C 7.863281 0.0078125 7.878906 0.0078125 7.894531 0.0117188 C 7.910156 0.0117188 7.925781 0.0117188 7.941406 0.0117188 C 8.003906 0.015625 8.066406 0.0195312 8.128906 0.0273438 C 8.152344 0.0273438 8.179688 0.03125 8.203125 0.03125 C 8.273438 0.0390625 8.34375 0.046875 8.414062 0.0546875 C 8.433594 0.0585938 8.457031 0.0585938 8.480469 0.0625 C 8.640625 0.0820312 8.800781 0.109375 8.957031 0.140625 C 8.972656 0.144531 8.988281 0.148438 9.003906 0.148438 C 9.023438 0.152344 9.042969 0.160156 9.066406 0.164062 C 9.09375 0.167969 9.121094 0.175781 9.152344 0.179688 C 9.171875 0.1875 9.195312 0.191406 9.214844 0.195312 C 9.242188 0.203125 9.265625 0.207031 9.292969 0.214844 C 9.316406 0.21875 9.335938 0.226562 9.359375 0.230469 C 9.527344 0.273438 9.695312 0.324219 9.859375 0.375 C 9.882812 0.386719 9.910156 0.394531 9.933594 0.402344 C 9.972656 0.414062 10.011719 0.429688 10.050781 0.441406 C 10.074219 0.453125 10.09375 0.460938 10.117188 0.46875 C 10.144531 0.476562 10.175781 0.488281 10.203125 0.5 C 10.230469 0.511719 10.257812 0.523438 10.289062 0.53125 C 10.398438 0.578125 10.511719 0.625 10.621094 0.675781 C 10.640625 0.683594 10.660156 0.695312 10.683594 0.703125 C 10.703125 0.714844 10.722656 0.722656 10.742188 0.734375 C 10.761719 0.742188 10.78125 0.753906 10.800781 0.761719 C 10.824219 0.773438 10.84375 0.78125 10.863281 0.792969 C 10.945312 0.832031 11.027344 0.878906 11.109375 0.921875 C 11.125 0.929688 11.140625 0.9375 11.15625 0.945312 C 11.1875 0.964844 11.21875 0.980469 11.25 1 C 11.277344 1.015625 11.304688 1.03125 11.332031 1.050781 C 11.363281 1.070312 11.394531 1.085938 11.425781 1.105469 C 11.433594 1.113281 11.441406 1.117188 11.449219 1.121094 C 11.476562 1.136719 11.503906 1.15625 11.53125 1.171875 C 11.5625 1.191406 11.59375 1.210938 11.621094 1.230469 C 11.675781 1.265625 11.726562 1.300781 11.777344 1.339844 C 11.808594 1.359375 11.835938 1.378906 11.863281 1.398438 C 11.878906 1.410156 11.898438 1.421875 11.914062 1.433594 C 11.921875 1.441406 11.929688 1.445312 11.941406 1.453125 C 11.957031 1.464844 11.972656 1.480469 11.992188 1.492188 C 12.003906 1.503906 12.019531 1.511719 12.03125 1.523438 C 12.054688 1.539062 12.078125 1.558594 12.097656 1.574219 C 12.117188 1.589844 12.140625 1.605469 12.160156 1.621094 C 12.183594 1.640625 12.210938 1.660156 12.234375 1.683594 C 12.257812 1.703125 12.28125 1.722656 12.308594 1.742188 C 12.328125 1.761719 12.347656 1.777344 12.371094 1.796875 C 12.402344 1.820312 12.433594 1.847656 12.464844 1.875 C 12.492188 1.902344 12.519531 1.929688 12.550781 1.953125 C 12.574219 1.976562 12.601562 2.003906 12.628906 2.027344 C 12.648438 2.046875 12.671875 2.066406 12.691406 2.085938 C 12.707031 2.101562 12.71875 2.113281 12.734375 2.128906 C 12.757812 2.152344 12.78125 2.171875 12.804688 2.195312 C 12.835938 2.230469 12.867188 2.261719 12.898438 2.292969 C 12.917969 2.316406 12.9375 2.335938 12.957031 2.355469 L 12.960938 2.359375 C 12.976562 2.375 12.988281 2.390625 13.003906 2.402344 C 13.101562 2.507812 13.195312 2.617188 13.285156 2.726562 C 13.296875 2.738281 13.304688 2.75 13.316406 2.761719 C 13.355469 2.808594 13.394531 2.859375 13.429688 2.90625 C 13.460938 2.949219 13.492188 2.988281 13.523438 3.027344 C 13.53125 3.039062 13.539062 3.050781 13.546875 3.0625 C 13.566406 3.085938 13.585938 3.113281 13.601562 3.136719 C 13.625 3.167969 13.644531 3.199219 13.667969 3.230469 C 13.699219 3.277344 13.730469 3.324219 13.761719 3.371094 C 13.824219 3.460938 13.882812 3.554688 13.9375 3.648438 C 13.957031 3.675781 13.972656 3.703125 13.988281 3.730469 C 14.003906 3.761719 14.023438 3.789062 14.039062 3.820312 C 14.050781 3.835938 14.058594 3.851562 14.066406 3.867188 C 14.097656 3.929688 14.132812 3.988281 14.164062 4.050781 C 14.175781 4.078125 14.191406 4.101562 14.203125 4.128906 C 14.226562 4.175781 14.25 4.21875 14.269531 4.265625 C 14.28125 4.285156 14.289062 4.304688 14.300781 4.324219 C 14.304688 4.332031 14.304688 4.339844 14.308594 4.347656 C 14.316406 4.367188 14.328125 4.382812 14.335938 4.402344 C 14.347656 4.425781 14.355469 4.449219 14.367188 4.476562 C 14.378906 4.5 14.390625 4.527344 14.402344 4.554688 C 14.414062 4.578125 14.421875 4.605469 14.433594 4.628906 C 14.445312 4.65625 14.457031 4.683594 14.46875 4.710938 C 14.5 4.792969 14.53125 4.878906 14.5625 4.960938 C 14.570312 4.988281 14.582031 5.019531 14.59375 5.046875 C 14.664062 5.253906 14.722656 5.460938 14.777344 5.671875 C 14.785156 5.707031 14.792969 5.738281 14.800781 5.769531 C 14.8125 5.824219 14.824219 5.878906 14.835938 5.933594 C 14.84375 5.964844 14.851562 5.996094 14.855469 6.027344 C 14.863281 6.054688 14.867188 6.085938 14.875 6.117188 C 14.878906 6.144531 14.882812 6.171875 14.886719 6.199219 C 14.898438 6.261719 14.910156 6.324219 14.917969 6.386719 C 14.921875 6.417969 14.925781 6.449219 14.929688 6.480469 C 14.9375 6.507812 14.941406 6.539062 14.945312 6.570312 C 14.953125 6.65625 14.960938 6.742188 14.96875 6.828125 C 14.976562 6.902344 14.984375 6.976562 14.988281 7.050781 C 14.988281 7.0625 14.988281 7.074219 14.988281 7.085938 C 14.988281 7.101562 14.992188 7.121094 14.992188 7.140625 C 14.996094 7.261719 15 7.378906 15 7.5 Z M 15 7.5 "/>
<path style=" stroke:none;fill-rule:nonzero;fill:rgb(90.588235%,0%,12.54902%);fill-opacity:1;" d="M 14.992188 7.140625 C 14.992188 7.121094 14.988281 7.101562 14.988281 7.085938 C 14.988281 7.074219 14.988281 7.0625 14.988281 7.050781 C 14.984375 6.976562 14.976562 6.902344 14.96875 6.828125 C 14.960938 6.742188 14.953125 6.65625 14.945312 6.570312 C 14.941406 6.539062 14.9375 6.507812 14.929688 6.480469 C 14.925781 6.449219 14.921875 6.417969 14.917969 6.386719 C 14.910156 6.324219 14.898438 6.261719 14.886719 6.199219 C 14.882812 6.171875 14.878906 6.144531 14.875 6.117188 C 14.867188 6.085938 14.863281 6.054688 14.855469 6.027344 C 14.851562 5.996094 14.84375 5.964844 14.835938 5.933594 C 14.824219 5.878906 14.8125 5.824219 14.800781 5.769531 C 14.792969 5.738281 14.785156 5.707031 14.777344 5.671875 C 14.722656 5.460938 14.664062 5.253906 14.59375 5.046875 C 14.582031 5.019531 14.570312 4.988281 14.5625 4.960938 C 14.53125 4.878906 14.5 4.792969 14.46875 4.710938 C 14.457031 4.683594 14.445312 4.65625 14.433594 4.628906 C 14.421875 4.605469 14.414062 4.578125 14.402344 4.554688 C 14.390625 4.527344 14.378906 4.5 14.367188 4.476562 C 14.355469 4.449219 14.347656 4.425781 14.335938 4.402344 C 14.328125 4.382812 14.316406 4.367188 14.308594 4.347656 C 14.304688 4.339844 14.304688 4.332031 14.300781 4.324219 C 14.289062 4.304688 14.28125 4.285156 14.269531 4.265625 C 14.25 4.21875 14.226562 4.175781 14.203125 4.128906 C 14.191406 4.101562 14.175781 4.078125 14.164062 4.050781 C 14.132812 3.988281 14.097656 3.929688 14.066406 3.867188 C 14.058594 3.851562 14.050781 3.835938 14.039062 3.820312 C 14.023438 3.789062 14.003906 3.761719 13.988281 3.730469 C 13.972656 3.703125 13.957031 3.675781 13.9375 3.648438 C 13.882812 3.554688 13.824219 3.460938 13.761719 3.371094 L 11.824219 4.492188 C 11.464844 3.976562 11.015625 3.53125 10.503906 3.171875 L 11.621094 1.230469 C 11.59375 1.210938 11.5625 1.191406 11.53125 1.171875 C 11.503906 1.15625 11.476562 1.136719 11.449219 1.121094 C 11.441406 1.117188 11.433594 1.113281 11.425781 1.105469 C 11.394531 1.085938 11.363281 1.070312 11.332031 1.050781 C 11.304688 1.03125 11.277344 1.015625 11.25 1 C 11.21875 0.980469 11.1875 0.964844 11.15625 0.945312 C 11.140625 0.9375 11.125 0.929688 11.109375 0.921875 C 11.027344 0.878906 10.945312 0.832031 10.863281 0.792969 C 10.84375 0.78125 10.824219 0.773438 10.800781 0.761719 C 10.78125 0.753906 10.761719 0.742188 10.742188 0.734375 C 10.722656 0.722656 10.703125 0.714844 10.679688 0.703125 C 10.660156 0.695312 10.640625 0.683594 10.621094 0.675781 C 10.511719 0.625 10.398438 0.578125 10.289062 0.53125 C 10.257812 0.523438 10.230469 0.511719 10.203125 0.5 C 10.175781 0.488281 10.144531 0.476562 10.117188 0.46875 C 10.09375 0.460938 10.074219 0.453125 10.050781 0.441406 C 10.011719 0.429688 9.972656 0.414062 9.933594 0.402344 C 9.910156 0.394531 9.882812 0.386719 9.859375 0.375 C 9.695312 0.320312 9.527344 0.273438 9.359375 0.230469 C 9.335938 0.226562 9.316406 0.21875 9.292969 0.214844 C 9.265625 0.207031 9.242188 0.203125 9.214844 0.195312 C 9.195312 0.191406 9.171875 0.1875 9.152344 0.179688 C 9.121094 0.175781 9.09375 0.167969 9.0625 0.164062 C 9.042969 0.15625 9.023438 0.152344 9.003906 0.148438 C 8.988281 0.148438 8.972656 0.144531 8.957031 0.140625 C 8.800781 0.109375 8.640625 0.0820312 8.480469 0.0625 C 8.457031 0.0585938 8.433594 0.0585938 8.414062 0.0546875 C 8.34375 0.046875 8.273438 0.0390625 8.203125 0.03125 C 8.179688 0.03125 8.152344 0.0273438 8.128906 0.0273438 C 8.066406 0.0195312 8.003906 0.015625 7.9375 0.0117188 C 7.925781 0.0117188 7.910156 0.0117188 7.894531 0.0117188 C 7.878906 0.0078125 7.863281 0.0078125 7.847656 0.0078125 C 7.804688 0.0078125 7.757812 0.00390625 7.714844 0.00390625 C 7.695312 0.00390625 7.679688 0.00390625 7.660156 0 C 7.644531 0 7.625 0 7.609375 0 C 7.574219 0 7.535156 0 7.5 0 C 7.351562 0 7.207031 0.00390625 7.0625 0.0117188 L 7.0625 2.25 C 6.410156 2.304688 5.796875 2.476562 5.234375 2.742188 L 4.105469 0.808594 C 4.078125 0.820312 4.054688 0.835938 4.027344 0.847656 C 3.949219 0.890625 3.875 0.929688 3.800781 0.972656 C 3.644531 1.0625 3.492188 1.152344 3.347656 1.253906 C 3.273438 1.300781 3.203125 1.351562 3.132812 1.402344 C 2.800781 1.636719 2.488281 1.902344 2.195312 2.195312 C 1.890625 2.5 1.617188 2.828125 1.371094 3.171875 C 1.320312 3.246094 1.265625 3.324219 1.214844 3.402344 C 1.054688 3.648438 0.910156 3.902344 0.777344 4.164062 L 2.722656 5.277344 C 2.464844 5.832031 2.296875 6.441406 2.246094 7.082031 L 0.0117188 7.089844 C 0.00390625 7.226562 0 7.363281 0 7.5 C 0 7.65625 0.00390625 7.8125 0.015625 7.96875 C 0.0195312 8.046875 0.0234375 8.128906 0.03125 8.207031 C 0.109375 9.050781 0.332031 9.867188 0.679688 10.625 C 0.71875 10.714844 0.761719 10.800781 0.804688 10.886719 C 0.9375 11.148438 1.085938 11.402344 1.246094 11.644531 L 3.183594 10.519531 C 3.542969 11.03125 3.992188 11.476562 4.507812 11.835938 L 3.394531 13.777344 C 3.640625 13.941406 3.894531 14.085938 4.15625 14.21875 C 4.230469 14.253906 4.304688 14.289062 4.378906 14.324219 C 5.140625 14.671875 5.960938 14.890625 6.808594 14.96875 C 6.898438 14.976562 6.988281 14.984375 7.078125 14.988281 C 7.21875 14.996094 7.359375 15 7.5 15 C 7.546875 15 7.59375 15 7.640625 15 C 7.664062 15 7.6875 14.996094 7.710938 14.996094 C 7.714844 14.996094 7.714844 14.996094 7.71875 14.996094 C 7.726562 14.996094 7.738281 14.996094 7.746094 14.996094 C 7.746094 14.996094 7.75 14.996094 7.75 14.996094 C 7.78125 14.996094 7.8125 14.992188 7.84375 14.992188 C 7.878906 14.992188 7.910156 14.988281 7.945312 14.988281 C 7.949219 14.988281 7.953125 14.988281 7.957031 14.984375 L 7.953125 12.75 C 8.59375 12.695312 9.199219 12.523438 9.753906 12.261719 L 10.878906 14.199219 C 10.910156 14.183594 10.945312 14.167969 10.976562 14.148438 C 11 14.136719 11.027344 14.121094 11.050781 14.109375 C 11.125 14.070312 11.199219 14.027344 11.269531 13.988281 C 11.300781 13.96875 11.328125 13.953125 11.359375 13.933594 C 11.425781 13.894531 11.492188 13.851562 11.558594 13.808594 C 11.585938 13.792969 11.613281 13.773438 11.636719 13.757812 C 11.707031 13.710938 11.777344 13.664062 11.84375 13.617188 C 11.886719 13.585938 11.929688 13.554688 11.96875 13.523438 C 12.011719 13.492188 12.054688 13.460938 12.09375 13.429688 L 12.144531 13.390625 C 12.167969 13.371094 12.191406 13.351562 12.21875 13.332031 C 12.238281 13.316406 12.257812 13.296875 12.277344 13.28125 C 12.300781 13.261719 12.324219 13.242188 12.347656 13.222656 C 12.503906 13.089844 12.65625 12.949219 12.804688 12.804688 C 12.835938 12.769531 12.871094 12.734375 12.90625 12.699219 C 12.925781 12.679688 12.945312 12.65625 12.964844 12.636719 C 13.003906 12.597656 13.039062 12.554688 13.078125 12.511719 C 13.113281 12.472656 13.148438 12.433594 13.183594 12.394531 C 13.1875 12.390625 13.191406 12.386719 13.195312 12.382812 C 13.214844 12.359375 13.234375 12.332031 13.253906 12.308594 C 13.285156 12.273438 13.316406 12.234375 13.347656 12.199219 C 13.359375 12.183594 13.371094 12.167969 13.386719 12.148438 C 13.402344 12.128906 13.421875 12.105469 13.4375 12.082031 C 13.457031 12.058594 13.472656 12.039062 13.492188 12.015625 C 13.519531 11.976562 13.546875 11.9375 13.578125 11.898438 C 13.589844 11.878906 13.605469 11.859375 13.617188 11.839844 C 13.621094 11.839844 13.621094 11.835938 13.621094 11.835938 C 13.652344 11.792969 13.683594 11.75 13.714844 11.703125 C 13.734375 11.675781 13.753906 11.648438 13.769531 11.617188 C 13.773438 11.617188 13.773438 11.617188 13.773438 11.613281 C 13.773438 11.613281 13.777344 11.613281 13.777344 11.609375 C 13.789062 11.59375 13.800781 11.574219 13.8125 11.558594 C 13.816406 11.550781 13.820312 11.542969 13.824219 11.539062 C 13.847656 11.5 13.871094 11.464844 13.894531 11.425781 C 13.910156 11.394531 13.929688 11.363281 13.949219 11.332031 C 13.96875 11.304688 13.988281 11.269531 14.003906 11.238281 C 14.058594 11.144531 14.113281 11.046875 14.164062 10.949219 C 14.179688 10.917969 14.195312 10.886719 14.210938 10.851562 L 12.269531 9.734375 C 12.53125 9.179688 12.699219 8.574219 12.75 7.933594 L 14.988281 7.929688 C 14.988281 7.894531 14.992188 7.859375 14.992188 7.824219 C 14.996094 7.75 15 7.679688 15 7.609375 C 15 7.570312 15 7.535156 15 7.5 C 15 7.378906 14.996094 7.261719 14.992188 7.140625 Z M 7.5 11.890625 C 5.078125 11.890625 3.109375 9.921875 3.109375 7.5 C 3.109375 5.078125 5.078125 3.109375 7.5 3.109375 C 9.921875 3.109375 11.890625 5.078125 11.890625 7.5 C 11.890625 9.921875 9.921875 11.890625 7.5 11.890625 Z M 7.5 11.890625 "/>
<path style=" stroke:none;fill-rule:nonzero;fill:rgb(88.235294%,88.235294%,89.411765%);fill-opacity:1;" d="M 10.605469 10.605469 C 9.773438 11.433594 8.671875 11.890625 7.5 11.890625 L 7.5 3.109375 C 8.671875 3.109375 9.773438 3.566406 10.605469 4.394531 C 11.433594 5.226562 11.890625 6.328125 11.890625 7.5 C 11.890625 8.671875 11.433594 9.773438 10.605469 10.605469 Z M 10.605469 10.605469 "/>
<path style=" stroke:none;fill-rule:nonzero;fill:rgb(60%,0%,7.45098%);fill-opacity:1;" d="M 15 7.5 C 15 7.535156 15 7.570312 15 7.609375 C 15 7.679688 14.996094 7.75 14.992188 7.824219 C 14.992188 7.859375 14.988281 7.894531 14.988281 7.929688 L 12.75 7.933594 C 12.699219 8.574219 12.53125 9.179688 12.269531 9.734375 L 14.210938 10.851562 C 14.195312 10.886719 14.179688 10.917969 14.164062 10.949219 C 14.113281 11.046875 14.058594 11.144531 14.003906 11.238281 C 13.984375 11.269531 13.96875 11.304688 13.949219 11.332031 C 13.929688 11.363281 13.910156 11.394531 13.894531 11.425781 C 13.871094 11.464844 13.847656 11.5 13.824219 11.539062 C 13.820312 11.542969 13.816406 11.550781 13.8125 11.558594 C 13.800781 11.574219 13.789062 11.59375 13.777344 11.609375 C 13.773438 11.613281 13.773438 11.613281 13.773438 11.613281 C 13.773438 11.617188 13.773438 11.617188 13.769531 11.617188 C 13.753906 11.648438 13.734375 11.675781 13.714844 11.703125 C 13.683594 11.75 13.652344 11.792969 13.621094 11.835938 C 13.621094 11.835938 13.621094 11.839844 13.617188 11.839844 C 13.605469 11.859375 13.589844 11.878906 13.578125 11.898438 C 13.546875 11.9375 13.519531 11.976562 13.492188 12.015625 C 13.472656 12.039062 13.457031 12.058594 13.4375 12.082031 C 13.421875 12.105469 13.402344 12.128906 13.386719 12.148438 C 13.371094 12.167969 13.359375 12.183594 13.347656 12.199219 C 13.316406 12.234375 13.285156 12.273438 13.253906 12.308594 C 13.234375 12.332031 13.214844 12.359375 13.195312 12.382812 C 13.191406 12.386719 13.1875 12.390625 13.183594 12.394531 C 13.148438 12.433594 13.113281 12.472656 13.078125 12.511719 C 13.039062 12.554688 13.003906 12.597656 12.964844 12.636719 C 12.945312 12.65625 12.925781 12.679688 12.90625 12.699219 C 12.871094 12.734375 12.835938 12.769531 12.804688 12.804688 C 12.65625 12.949219 12.503906 13.089844 12.347656 13.222656 C 12.324219 13.242188 12.300781 13.261719 12.277344 13.28125 C 12.257812 13.296875 12.238281 13.316406 12.21875 13.332031 C 12.191406 13.351562 12.167969 13.371094 12.144531 13.390625 L 12.09375 13.429688 C 12.054688 13.460938 12.011719 13.492188 11.96875 13.523438 C 11.929688 13.554688 11.886719 13.585938 11.84375 13.617188 C 11.777344 13.664062 11.707031 13.710938 11.636719 13.757812 C 11.613281 13.773438 11.585938 13.792969 11.558594 13.808594 C 11.492188 13.851562 11.425781 13.894531 11.359375 13.933594 C 11.328125 13.953125 11.300781 13.96875 11.269531 13.988281 C 11.199219 14.027344 11.125 14.070312 11.050781 14.109375 C 11.027344 14.121094 11 14.136719 10.976562 14.148438 C 10.945312 14.167969 10.910156 14.183594 10.878906 14.199219 L 9.753906 12.261719 C 9.199219 12.523438 8.59375 12.695312 7.953125 12.75 L 7.957031 14.984375 C 7.953125 14.988281 7.949219 14.988281 7.945312 14.988281 C 7.910156 14.988281 7.878906 14.992188 7.84375 14.992188 C 7.8125 14.992188 7.78125 14.996094 7.75 14.996094 C 7.75 14.996094 7.746094 14.996094 7.746094 14.996094 C 7.738281 14.996094 7.726562 14.996094 7.71875 14.996094 C 7.714844 14.996094 7.714844 14.996094 7.710938 14.996094 C 7.6875 14.996094 7.664062 15 7.640625 15 C 7.59375 15 7.546875 15 7.5 15 L 7.5 11.890625 C 9.921875 11.890625 11.890625 9.921875 11.890625 7.5 C 11.890625 5.078125 9.921875 3.109375 7.5 3.109375 L 7.5 0 C 7.535156 0 7.574219 0 7.609375 0 C 7.625 0 7.644531 0 7.660156 0 C 7.679688 0.00390625 7.695312 0.00390625 7.714844 0.00390625 C 7.757812 0.00390625 7.804688 0.0078125 7.847656 0.0078125 C 7.863281 0.0078125 7.878906 0.0078125 7.894531 0.0117188 C 7.910156 0.0117188 7.925781 0.0117188 7.941406 0.0117188 C 8.003906 0.015625 8.066406 0.0195312 8.128906 0.0273438 C 8.152344 0.0273438 8.179688 0.03125 8.203125 0.03125 C 8.273438 0.0390625 8.34375 0.046875 8.414062 0.0546875 C 8.433594 0.0585938 8.457031 0.0585938 8.480469 0.0625 C 8.640625 0.0820312 8.800781 0.109375 8.957031 0.140625 C 8.972656 0.144531 8.988281 0.148438 9.003906 0.148438 C 9.023438 0.152344 9.042969 0.160156 9.066406 0.164062 C 9.09375 0.167969 9.121094 0.175781 9.152344 0.179688 C 9.171875 0.1875 9.195312 0.191406 9.214844 0.195312 C 9.242188 0.203125 9.265625 0.207031 9.292969 0.214844 C 9.316406 0.21875 9.335938 0.226562 9.359375 0.230469 C 9.527344 0.273438 9.695312 0.324219 9.859375 0.375 C 9.882812 0.386719 9.910156 0.394531 9.933594 0.402344 C 9.972656 0.414062 10.011719 0.429688 10.050781 0.441406 C 10.074219 0.453125 10.09375 0.460938 10.117188 0.46875 C 10.144531 0.476562 10.175781 0.488281 10.203125 0.5 C 10.230469 0.511719 10.257812 0.523438 10.289062 0.53125 C 10.398438 0.578125 10.511719 0.625 10.621094 0.675781 C 10.640625 0.683594 10.660156 0.695312 10.683594 0.703125 C 10.703125 0.714844 10.722656 0.722656 10.742188 0.734375 C 10.761719 0.742188 10.78125 0.753906 10.800781 0.761719 C 10.824219 0.773438 10.84375 0.78125 10.863281 0.792969 C 10.945312 0.832031 11.027344 0.878906 11.109375 0.921875 C 11.125 0.929688 11.140625 0.9375 11.15625 0.945312 C 11.1875 0.964844 11.21875 0.980469 11.25 1 C 11.277344 1.015625 11.304688 1.03125 11.332031 1.050781 C 11.363281 1.070312 11.394531 1.085938 11.425781 1.105469 C 11.433594 1.113281 11.441406 1.117188 11.449219 1.121094 C 11.476562 1.136719 11.503906 1.15625 11.53125 1.171875 C 11.5625 1.191406 11.59375 1.210938 11.621094 1.230469 L 10.503906 3.171875 C 11.015625 3.53125 11.464844 3.976562 11.824219 4.492188 L 13.761719 3.371094 C 13.824219 3.460938 13.882812 3.554688 13.9375 3.648438 C 13.957031 3.675781 13.972656 3.703125 13.988281 3.730469 C 14.003906 3.761719 14.023438 3.789062 14.039062 3.820312 C 14.050781 3.835938 14.058594 3.851562 14.066406 3.867188 C 14.097656 3.929688 14.132812 3.988281 14.164062 4.050781 C 14.175781 4.078125 14.191406 4.101562 14.203125 4.128906 C 14.226562 4.175781 14.25 4.21875 14.269531 4.265625 C 14.28125 4.285156 14.289062 4.304688 14.300781 4.324219 C 14.304688 4.332031 14.304688 4.339844 14.308594 4.347656 C 14.316406 4.367188 14.328125 4.382812 14.335938 4.402344 C 14.347656 4.425781 14.355469 4.449219 14.367188 4.476562 C 14.378906 4.5 14.390625 4.527344 14.402344 4.554688 C 14.414062 4.578125 14.421875 4.605469 14.433594 4.628906 C 14.445312 4.65625 14.457031 4.683594 14.46875 4.710938 C 14.5 4.792969 14.53125 4.878906 14.5625 4.960938 C 14.570312 4.988281 14.582031 5.019531 14.59375 5.046875 C 14.664062 5.253906 14.726562 5.460938 14.777344 5.671875 C 14.785156 5.707031 14.792969 5.738281 14.800781 5.769531 C 14.8125 5.824219 14.824219 5.878906 14.835938 5.933594 C 14.84375 5.964844 14.851562 5.996094 14.855469 6.027344 C 14.863281 6.054688 14.867188 6.085938 14.875 6.117188 C 14.878906 6.144531 14.882812 6.171875 14.886719 6.199219 C 14.898438 6.261719 14.910156 6.324219 14.917969 6.386719 C 14.921875 6.417969 14.925781 6.449219 14.929688 6.480469 C 14.9375 6.507812 14.941406 6.539062 14.945312 6.570312 C 14.953125 6.65625 14.960938 6.742188 14.96875 6.828125 C 14.976562 6.902344 14.984375 6.976562 14.988281 7.050781 C 14.988281 7.0625 14.988281 7.074219 14.988281 7.085938 C 14.988281 7.101562 14.992188 7.121094 14.992188 7.140625 C 14.996094 7.261719 15 7.378906 15 7.5 Z M 15 7.5 "/>
<path style=" stroke:none;fill-rule:nonzero;fill:rgb(23.529412%,22.745098%,25.490196%);fill-opacity:1;" d="M 9.601562 8.347656 C 9.269531 8.886719 8.8125 9.003906 8.484375 9.003906 C 8.3125 9.007812 8.144531 8.976562 7.980469 8.917969 C 8.015625 9.066406 8.0625 9.144531 8.101562 9.171875 L 8.160156 9.214844 L 8.160156 9.609375 L 6.839844 9.609375 L 6.839844 9.214844 L 6.898438 9.171875 C 6.9375 9.144531 6.984375 9.066406 7.019531 8.917969 C 6.855469 8.976562 6.6875 9.007812 6.515625 9.003906 C 6.1875 9.003906 5.730469 8.886719 5.398438 8.347656 C 5.132812 7.914062 5.125 7.398438 5.378906 6.933594 C 5.574219 6.578125 5.878906 6.292969 6.171875 6.015625 C 6.222656 5.96875 6.273438 5.921875 6.320312 5.875 C 6.5 5.699219 6.6875 5.53125 6.863281 5.371094 C 7.039062 5.207031 7.222656 5.042969 7.402344 4.871094 L 7.5 4.773438 L 7.597656 4.871094 C 7.777344 5.042969 7.960938 5.207031 8.136719 5.371094 C 8.3125 5.53125 8.5 5.699219 8.679688 5.875 C 8.726562 5.921875 8.777344 5.96875 8.828125 6.015625 C 9.121094 6.292969 9.425781 6.578125 9.621094 6.933594 C 9.875 7.398438 9.867188 7.914062 9.601562 8.347656 Z M 9.601562 8.347656 "/>
<path style=" stroke:none;fill-rule:nonzero;fill:rgb(9.019608%,9.019608%,10.196078%);fill-opacity:1;" d="M 9.601562 8.347656 C 9.269531 8.886719 8.8125 9.003906 8.484375 9.003906 C 8.3125 9.007812 8.144531 8.976562 7.980469 8.917969 C 8.015625 9.066406 8.0625 9.144531 8.101562 9.171875 L 8.160156 9.214844 L 8.160156 9.609375 L 7.5 9.609375 L 7.5 4.773438 L 7.597656 4.871094 C 7.777344 5.042969 7.960938 5.207031 8.136719 5.371094 C 8.3125 5.53125 8.5 5.699219 8.679688 5.875 C 8.726562 5.921875 8.777344 5.96875 8.828125 6.015625 C 9.121094 6.292969 9.425781 6.578125 9.621094 6.933594 C 9.875 7.398438 9.867188 7.914062 9.601562 8.347656 Z M 9.601562 8.347656 "/>
</g>
</svg>
